<?xml version="1.0" encoding="UTF-8" ?>
<!DOCTYPE svg PUBLIC "-//W3C//DTD SVG 1.1//EN" "http://www.w3.org/Graphics/SVG/1.1/DTD/svg11.dtd">
<svg width="70pt" height="70pt" viewBox="0 0 70 70" version="1.1" xmlns="http://www.w3.org/2000/svg">
<g id="#63a63eff">
<path fill="#63a63e" opacity="1.00" d=" M 30.13 3.19 C 45.57 0.47 61.74 10.89 65.89 25.94 C 70.29 40.05 63.44 56.50 50.35 63.31 C 37.39 70.65 19.64 67.29 10.29 55.70 C -0.03 43.90 0.42 24.54 11.28 13.23 C 16.19 7.88 22.95 4.25 30.13 3.19 M 29.33 39.87 C 26.18 36.80 23.23 33.53 19.99 30.54 C 18.22 31.96 16.50 33.44 14.91 35.06 C 19.59 40.33 24.30 45.70 29.74 50.21 C 35.98 43.96 42.23 37.73 48.46 31.48 C 50.41 29.51 52.57 27.70 54.07 25.32 C 52.53 23.63 50.82 22.10 49.06 20.64 C 42.38 26.95 36.28 33.87 29.33 39.87 Z" />
</g>
<g id="#ffffffff">
<path fill="#ffffff" opacity="1.00" d=" M 29.33 39.87 C 36.28 33.87 42.38 26.95 49.06 20.64 C 50.82 22.10 52.53 23.63 54.07 25.32 C 52.57 27.70 50.41 29.51 48.46 31.48 C 42.23 37.73 35.98 43.96 29.74 50.21 C 24.30 45.70 19.59 40.33 14.91 35.06 C 16.50 33.44 18.22 31.96 19.99 30.54 C 23.23 33.53 26.18 36.80 29.33 39.87 Z" />
</g>
</svg>
