<?xml version="1.0" encoding="utf-8"?>
<!-- Generator: Adobe Illustrator 20.1.0, SVG Export Plug-In . SVG Version: 6.00 Build 0)  -->
<svg version="1.1" id="Слой_1" xmlns="http://www.w3.org/2000/svg" xmlns:xlink="http://www.w3.org/1999/xlink" x="0px" y="0px"
	 viewBox="0 0 23 23" style="enable-background:new 0 0 23 23;" xml:space="preserve">
<style type="text/css">
	.st0{fill:#B5B5B5;}
</style>
<path class="st0" d="M20,2c0.5,0,1,0.5,1,1v17c0,0.5-0.5,1-1,1H3c-0.5,0-1-0.5-1-1V3c0-0.5,0.5-1,1-1H20 M20,0H3C1.4,0,0,1.4,0,3v17
	c0,1.6,1.4,3,3,3h17c1.6,0,3-1.4,3-3V3C23,1.4,21.6,0,20,0z"/>
</svg>
